<svg width="437" height="81" viewBox="0 0 437 81" fill="none" xmlns="http://www.w3.org/2000/svg">
<g clip-path="url(#clip0_583_1499)">
<path d="M14.73 37.59V35.06H4.36C1.95 35.06 0 33.1 0 30.67C0 28.24 1.94 26.28 4.36 26.28H5.03C9.96 26.28 13.07 24.63 15.01 22.39C15.58 13.12 17.24 7.27002 21.78 7.27002C25.25 7.27002 27.3 10.48 27.3 14.69C27.3 17.33 26.24 22 23.23 26.29H41.82C44.23 26.29 46.18 28.25 46.18 30.68C46.18 33.11 44.24 35.07 41.82 35.07H23.44V37.6C23.44 51.26 24.32 70.67 35.34 70.67C41.25 70.67 44.83 66.1 49.68 53.22C50.25 51.57 51.91 50.4 53.75 50.4C57.15 50.4 58.78 53.9 57.82 56.36C52.4 70.8 45.92 79.48 35.37 79.48C15.61 79.48 14.76 51.79 14.76 37.64L14.73 37.61V37.59Z" fill="white"/>
<path d="M46.46 27.43C46.46 14.27 48.59 0.420044 58.65 0.420044C63.96 0.420044 68.92 4.31004 68.92 17.01C68.92 26.57 66.2 41.59 57.59 55.43C58.94 63.42 60.39 68.88 60.88 68.88C61.84 68.88 64.07 57.67 64.07 57.75C67.75 44.77 72.99 25.75 85.28 25.75C95.73 25.75 97.18 39.02 97.57 53.75C97.73 58.14 97.7 62.66 98.43 66.99C98.69 68.56 98.95 69.6 100.24 70.54C102.08 71.87 104.47 73.13 102.83 75.92C101.53 78.14 97.96 79.24 95.73 78.14C93.66 77.15 92.33 75.19 91.48 73.13C88.99 67.25 89.09 60.2 88.86 53.93C88.57 42.41 88.29 34.52 85 34.52C79.37 34.52 73.39 56.85 72.43 60.17C69.53 70.23 67.3 78.9 61.49 78.9C51.04 78.9 46.48 50.14 46.48 27.42L46.46 27.43ZM55.87 41.77C59.27 32.31 60.23 23.33 60.23 16.41C60.23 10.27 59.45 9.20004 58.21 9.20004C55.98 9.20004 55.2 17.48 55.2 27.43C55.2 32.21 55.49 37.17 55.87 41.77Z" fill="white"/>
<path d="M231.57 54.07C231.47 48.22 231.47 34.5601 228.49 34.5601C223.85 34.5601 219.68 52.0101 218.22 57.8601C215.89 67.3201 214.05 74.9201 210.08 78.0501C207.46 80.0101 204.17 79.9001 201.94 77.6601C198.47 74.0601 198.47 66.4501 198.47 56.6101C198.47 55.2501 198.65 34.57 195.07 34.57C190.14 34.57 185.19 56.12 184.62 58.57C182.99 65 181.33 71.5501 179.2 75.8301C177.57 80.2201 170.59 80.0401 169.82 74.8601C169.12 70.08 170.31 63.5801 170.31 58.7401C170.31 53.9001 167.22 40.1401 166.65 37.4001C166.26 35.4401 165.3 32.3601 166.24 30.4501C166.86 29.2201 168.6 28.6001 169.74 28.6201C171.14 28.6501 172.38 29.61 173.14 30.81C173.9 32.01 174.23 33.42 174.54 34.78C175.21 37.63 175.86 40.47 176.54 43.35C177.16 45.96 177.24 48.13 177.55 50.7701C180.01 42.2001 183.49 25.8 195.05 25.8C206.61 25.8 207.16 41.11 207.16 56.62L207.26 65.2901C208.04 62.7601 208.82 59.44 209.77 55.73C213.45 40.89 217.42 25.8 228.46 25.8C239.5 25.8 240.08 39.46 240.28 54.09C240.38 60.62 240.46 70.68 242.41 70.68C244.36 70.68 247.26 65.7201 251.41 53.3101C251.98 51.6601 253.64 50.3801 255.58 50.3801C258.77 50.3801 260.61 53.12 259.65 56.23C254.91 71.14 248.99 79.45 241.66 79.45C232.27 79.45 231.6 68.14 231.6 54.09L231.57 54.0601V54.07Z" fill="white"/>
<path d="M156.49 27.71C138.7 29.04 116.51 32.31 109.8 51.95C107.16 59.66 108.74 68.61 114.34 74.6C120.54 81.21 130.39 81.73 138.55 79.12C148.92 75.83 158.1 67.44 169.45 67.99C174.45 68.23 174.45 60.39 169.45 60.15C158.35 59.63 149.59 66.21 139.84 70.31C132.06 73.6 121.35 74.57 117.41 65.24C113.86 56.86 119.12 47.79 126.07 43.14C135.01 37.13 146.06 36.3 156.48 35.51C161.43 35.14 161.48 27.31 156.48 27.67V27.7L156.49 27.71Z" fill="white"/>
<path d="M125.95 64.8299C128.8 63.8399 131.73 63.0799 134.71 62.5799C135.1 62.4999 135.49 62.4499 135.9 62.3999C136.76 62.2699 135.28 62.4499 136.21 62.3499C136.94 62.2699 137.69 62.1899 138.41 62.1399C139.94 62.0099 141.47 61.9599 143.03 61.9799C145.05 61.9799 147.02 60.1799 146.92 58.0599C146.82 55.9399 145.21 54.1399 143.03 54.1399C136.55 54.1399 130.02 55.1599 123.87 57.2699C121.95 57.9199 120.47 59.9899 121.15 62.0999C121.77 64.0299 123.87 65.5499 125.95 64.8399V64.8099V64.8299Z" fill="white"/>
<path d="M123.95 27.6101C124.42 27.8701 124.96 27.4501 124.83 26.9301C124.13 23.9801 122.29 18.1501 118.63 16.1901C116.19 14.8801 111.76 14.9901 109.61 17.7601C107.46 20.5301 109.14 23.9501 111.35 25.1801C114.18 26.7501 116.54 26.4101 118.45 26.5901C120.19 26.7501 122.34 26.7201 123.95 27.6101Z" fill="white"/>
<path d="M398.64 59.13C401.82 59.52 404.44 58.23 407 56.15V80.48C405.18 79.41 403.51 78.49 401.88 77.48C395.76 73.7 390.08 69.38 385.71 63.57C382.18 58.88 379.92 53.74 380.18 47.7C380.51 39.99 386.53 33.88 393.84 33.93C403.8 34.01 410.42 44.4 406.06 53.12C404.61 56.03 402.53 57.67 398.63 59.13H398.64Z" fill="#E5007E"/>
<path d="M417.73 59.14C414.55 59.53 411.93 58.24 409.37 56.16C409.37 64.31 409.37 72.24 409.37 80.49C411.19 79.42 412.86 78.5 414.49 77.49C420.61 73.71 426.29 69.39 430.66 63.58C434.19 58.89 436.45 53.75 436.19 47.71C435.86 40 429.84 33.89 422.53 33.94C412.57 34.02 405.95 44.41 410.31 53.13C411.76 56.04 413.84 57.68 417.74 59.14H417.73Z" fill="#E5007E"/>
<path d="M415.47 22.51C415.51 23.05 415.72 26.08 413.64 28.5C413.5 28.67 410.7 31.81 406.83 31.07C403.99 30.52 402.51 28.24 402.23 27.82C401.19 26.24 401.01 24.65 400.94 23.82C400.81 22.47 400.92 21.46 401.21 20.37C401.99 17.42 403.24 14.69 405.1 12.27C405.46 11.8 405.91 11.38 406.4 11.06C406.69 10.87 406.99 10.82 407.24 10.91C407.55 11.01 407.7 11.32 407.83 11.58C408.06 12.03 408.09 12.43 408.1 12.49C408.19 13.62 408.27 16.36 408.28 16.68C408.28 16.68 408.37 19.62 409.96 21.61C410.31 22.05 410.52 22.03 410.59 22.02C410.77 21.99 410.91 21.78 411.01 21.4C411.23 20.59 411.34 19.76 411.49 18.93C411.58 18.4 411.59 17.84 411.72 17.32C411.91 16.54 412.34 16.43 412.95 16.94C412.99 16.97 413.03 17.01 413.07 17.05C414.93 19.19 415.4 21.73 415.4 21.73C415.43 21.91 415.47 22.18 415.49 22.5L415.47 22.51Z" fill="#E5007E"/>
<path d="M265.24 80.39V10.96H296.51C304.67 10.96 310.98 13.1 315.45 17.37C320.11 21.71 322.44 27.41 322.44 34.46C322.44 41.51 320.29 46.66 315.98 50.87C311.67 55.08 305.99 57.18 298.94 57.18H282.72V80.39H265.24ZM282.72 43.59H295.44C298.48 43.59 300.86 42.75 302.58 41.06C304.29 39.38 305.15 37.14 305.15 34.36C305.15 31.58 304.29 29.39 302.58 27.81C300.86 26.22 298.48 25.43 295.44 25.43H282.72V43.59Z" fill="#E5007E"/>
<path d="M326.93 80.39V10.96H342.76V36.79H343.05C346.87 31.74 351.79 29.22 357.81 29.22C363.18 29.22 367.41 30.95 370.48 34.42C373.55 37.88 375.09 42.43 375.09 48.06V80.4H359.26V51.27C359.26 48.55 358.6 46.4 357.27 44.81C355.94 43.22 354.02 42.43 351.49 42.43C348.96 42.43 346.79 43.4 345.18 45.34C343.56 47.28 342.75 49.81 342.75 52.91V80.39H326.92H326.93Z" fill="#E5007E"/>
</g>
<defs>
<clipPath id="clip0_583_1499">
<rect width="436.72" height="81" fill="white"/>
</clipPath>
</defs>
</svg>
